<mxfile host="app.diagrams.net" modified="2024-04-19T07:33:34.168Z" agent="Mozilla/5.0 (Windows NT 10.0; Win64; x64) AppleWebKit/537.36 (KHTML, like Gecko) Chrome/123.0.0.0 Safari/537.36" etag="jLHQ6GB40HUtZV3uLMuB" version="24.2.5" type="device">
  <diagram name="number_game" id="hz9Eb4M0yqNOReWWThK2">
    <mxGraphModel dx="1405" dy="897" grid="1" gridSize="10" guides="1" tooltips="1" connect="1" arrows="1" fold="1" page="1" pageScale="1" pageWidth="1169" pageHeight="1654" math="0" shadow="0">
      <root>
        <mxCell id="0" />
        <mxCell id="1" parent="0" />
        <mxCell id="St9FYXUNBVxs8YyR7igA-5" value="" style="edgeStyle=orthogonalEdgeStyle;rounded=0;orthogonalLoop=1;jettySize=auto;html=1;endArrow=block;endFill=1;strokeWidth=1;" edge="1" parent="1" source="St9FYXUNBVxs8YyR7igA-3" target="St9FYXUNBVxs8YyR7igA-4">
          <mxGeometry relative="1" as="geometry" />
        </mxCell>
        <mxCell id="St9FYXUNBVxs8YyR7igA-3" value="开始" style="strokeWidth=2;html=1;shape=mxgraph.flowchart.start_2;whiteSpace=wrap;" vertex="1" parent="1">
          <mxGeometry x="555" y="20" width="60" height="60" as="geometry" />
        </mxCell>
        <mxCell id="St9FYXUNBVxs8YyR7igA-14" style="edgeStyle=orthogonalEdgeStyle;rounded=0;orthogonalLoop=1;jettySize=auto;html=1;exitX=0.5;exitY=1;exitDx=0;exitDy=0;entryX=0.5;entryY=0;entryDx=0;entryDy=0;" edge="1" parent="1" source="St9FYXUNBVxs8YyR7igA-4" target="St9FYXUNBVxs8YyR7igA-6">
          <mxGeometry relative="1" as="geometry" />
        </mxCell>
        <mxCell id="St9FYXUNBVxs8YyR7igA-4" value="创建随机数" style="rounded=1;whiteSpace=wrap;html=1;absoluteArcSize=1;arcSize=14;strokeWidth=2;" vertex="1" parent="1">
          <mxGeometry x="535" y="120" width="100" height="40" as="geometry" />
        </mxCell>
        <mxCell id="St9FYXUNBVxs8YyR7igA-15" style="edgeStyle=orthogonalEdgeStyle;rounded=0;orthogonalLoop=1;jettySize=auto;html=1;exitX=0.5;exitY=1;exitDx=0;exitDy=0;" edge="1" parent="1" source="St9FYXUNBVxs8YyR7igA-6" target="St9FYXUNBVxs8YyR7igA-7">
          <mxGeometry relative="1" as="geometry" />
        </mxCell>
        <mxCell id="St9FYXUNBVxs8YyR7igA-6" value="用户输入" style="rounded=1;whiteSpace=wrap;html=1;absoluteArcSize=1;arcSize=14;strokeWidth=2;" vertex="1" parent="1">
          <mxGeometry x="535" y="200" width="100" height="40" as="geometry" />
        </mxCell>
        <mxCell id="St9FYXUNBVxs8YyR7igA-12" value="不相等" style="edgeStyle=orthogonalEdgeStyle;rounded=0;orthogonalLoop=1;jettySize=auto;html=1;exitX=0.5;exitY=1;exitDx=0;exitDy=0;exitPerimeter=0;entryX=0.5;entryY=0;entryDx=0;entryDy=0;entryPerimeter=0;" edge="1" parent="1" source="St9FYXUNBVxs8YyR7igA-7" target="St9FYXUNBVxs8YyR7igA-16">
          <mxGeometry relative="1" as="geometry">
            <mxPoint x="585" y="420" as="targetPoint" />
          </mxGeometry>
        </mxCell>
        <mxCell id="St9FYXUNBVxs8YyR7igA-22" style="edgeStyle=orthogonalEdgeStyle;rounded=0;orthogonalLoop=1;jettySize=auto;html=1;exitX=0;exitY=0.5;exitDx=0;exitDy=0;exitPerimeter=0;" edge="1" parent="1" source="St9FYXUNBVxs8YyR7igA-7" target="St9FYXUNBVxs8YyR7igA-17">
          <mxGeometry relative="1" as="geometry" />
        </mxCell>
        <mxCell id="St9FYXUNBVxs8YyR7igA-28" value="相等" style="edgeLabel;html=1;align=center;verticalAlign=middle;resizable=0;points=[];" vertex="1" connectable="0" parent="St9FYXUNBVxs8YyR7igA-22">
          <mxGeometry x="0.2199" y="-1" relative="1" as="geometry">
            <mxPoint as="offset" />
          </mxGeometry>
        </mxCell>
        <mxCell id="St9FYXUNBVxs8YyR7igA-7" value="大小判断" style="strokeWidth=2;html=1;shape=mxgraph.flowchart.decision;whiteSpace=wrap;" vertex="1" parent="1">
          <mxGeometry x="550" y="280" width="70" height="70" as="geometry" />
        </mxCell>
        <mxCell id="St9FYXUNBVxs8YyR7igA-19" style="edgeStyle=orthogonalEdgeStyle;rounded=0;orthogonalLoop=1;jettySize=auto;html=1;exitX=1;exitY=0.5;exitDx=0;exitDy=0;exitPerimeter=0;entryX=1;entryY=0.5;entryDx=0;entryDy=0;" edge="1" parent="1" source="St9FYXUNBVxs8YyR7igA-16" target="St9FYXUNBVxs8YyR7igA-6">
          <mxGeometry relative="1" as="geometry">
            <Array as="points">
              <mxPoint x="710" y="425" />
              <mxPoint x="710" y="220" />
            </Array>
          </mxGeometry>
        </mxCell>
        <mxCell id="St9FYXUNBVxs8YyR7igA-20" value="否" style="edgeLabel;html=1;align=center;verticalAlign=middle;resizable=0;points=[];" vertex="1" connectable="0" parent="St9FYXUNBVxs8YyR7igA-19">
          <mxGeometry x="0.0962" y="2" relative="1" as="geometry">
            <mxPoint as="offset" />
          </mxGeometry>
        </mxCell>
        <mxCell id="St9FYXUNBVxs8YyR7igA-23" style="edgeStyle=orthogonalEdgeStyle;rounded=0;orthogonalLoop=1;jettySize=auto;html=1;exitX=0.5;exitY=1;exitDx=0;exitDy=0;exitPerimeter=0;" edge="1" parent="1" source="St9FYXUNBVxs8YyR7igA-16" target="St9FYXUNBVxs8YyR7igA-21">
          <mxGeometry relative="1" as="geometry" />
        </mxCell>
        <mxCell id="St9FYXUNBVxs8YyR7igA-16" value="次数用完" style="strokeWidth=2;html=1;shape=mxgraph.flowchart.decision;whiteSpace=wrap;" vertex="1" parent="1">
          <mxGeometry x="550" y="390" width="70" height="70" as="geometry" />
        </mxCell>
        <mxCell id="St9FYXUNBVxs8YyR7igA-26" style="edgeStyle=orthogonalEdgeStyle;rounded=0;orthogonalLoop=1;jettySize=auto;html=1;exitX=0.5;exitY=1;exitDx=0;exitDy=0;entryX=0.5;entryY=0;entryDx=0;entryDy=0;" edge="1" parent="1" source="St9FYXUNBVxs8YyR7igA-17" target="St9FYXUNBVxs8YyR7igA-24">
          <mxGeometry relative="1" as="geometry" />
        </mxCell>
        <mxCell id="St9FYXUNBVxs8YyR7igA-17" value="胜利" style="rounded=1;whiteSpace=wrap;html=1;absoluteArcSize=1;arcSize=14;strokeWidth=2;" vertex="1" parent="1">
          <mxGeometry x="432.5" y="530" width="100" height="40" as="geometry" />
        </mxCell>
        <mxCell id="St9FYXUNBVxs8YyR7igA-27" style="edgeStyle=orthogonalEdgeStyle;rounded=0;orthogonalLoop=1;jettySize=auto;html=1;exitX=0.5;exitY=1;exitDx=0;exitDy=0;entryX=0.5;entryY=0;entryDx=0;entryDy=0;" edge="1" parent="1" source="St9FYXUNBVxs8YyR7igA-21" target="St9FYXUNBVxs8YyR7igA-24">
          <mxGeometry relative="1" as="geometry" />
        </mxCell>
        <mxCell id="St9FYXUNBVxs8YyR7igA-21" value="失败" style="rounded=1;whiteSpace=wrap;html=1;absoluteArcSize=1;arcSize=14;strokeWidth=2;" vertex="1" parent="1">
          <mxGeometry x="637.5" y="530" width="100" height="40" as="geometry" />
        </mxCell>
        <mxCell id="St9FYXUNBVxs8YyR7igA-24" value="" style="shape=sumEllipse;perimeter=ellipsePerimeter;html=1;backgroundOutline=1;" vertex="1" parent="1">
          <mxGeometry x="570" y="630" width="30" height="30" as="geometry" />
        </mxCell>
      </root>
    </mxGraphModel>
  </diagram>
</mxfile>
